<svg xmlns="http://www.w3.org/2000/svg" x="0px" y="0px" width="100" height="100"
    viewBox="0,0,256,256">
    <g fill="#0374db" fill-rule="nonzero" stroke="none" stroke-width="1" stroke-linecap="butt"
        stroke-linejoin="miter" stroke-miterlimit="10" stroke-dasharray="" stroke-dashoffset="0"
        font-family="none" font-weight="none" font-size="none" text-anchor="none"
        style="mix-blend-mode: normal">
        <g transform="scale(10.66667,10.66667)">
            <path
                d="M18,21h-12c-1.7,0 -3,-1.3 -3,-3v-12c0,-1.7 1.3,-3 3,-3h12c1.7,0 3,1.3 3,3v12c0,1.7 -1.3,3 -3,3z"
                opacity="0.35"></path>
            <path
                d="M13.4,12l2.8,-2.8c0.4,-0.4 0.4,-1 0,-1.4c-0.4,-0.4 -1,-0.4 -1.4,0l-2.8,2.8l-2.8,-2.8c-0.4,-0.4 -1,-0.4 -1.4,0c-0.4,0.4 -0.4,1 0,1.4l2.8,2.8l-2.8,2.8c-0.4,0.4 -0.4,1 0,1.4c0.2,0.2 0.5,0.3 0.7,0.3c0.2,0 0.5,-0.1 0.7,-0.3l2.8,-2.8l2.8,2.8c0.2,0.2 0.5,0.3 0.7,0.3c0.2,0 0.5,-0.1 0.7,-0.3c0.4,-0.4 0.4,-1 0,-1.4z"></path>
        </g>
    </g>
</svg>